<svg width="100%" viewBox="0 0 200 200" xmlns="http://www.w3.org/2000/svg">
<polygon points="20,20 180,20 180,180 20,180" fill="#c0c0c0" stroke="#000000" stroke-width="1.5" stroke-linejoin="miter"/>
<polygon points="20,20 180,20 174,26 26,26 26,174 20,180" fill="#ffffff"/>
<polygon points="180,20 180,180 20,180 26,174 174,174 174,26" fill="#808080"/>
<polygon points="26,26 174,26 174,174 26,174" fill="#c0c0c0"/>
<path fill="#6a6aff" d="M68.5,36.5 L127,36.5 L127,49.5 L81.5,49.5 L81.5,94.5 L127,94.5 L127,107.5 L81.5,107.5 L81.5,152.5 L127,152.5 L127,165.5 L68.5,165.5 Z"/>
<path fill="#000060" d="M67.5,35.5 L126,35.5 L126,48.5 L80.5,48.5 L80.5,93.5 L126,93.5 L126,106.5 L80.5,106.5 L80.5,151.5 L126,151.5 L126,164.5 L67.5,164.5 Z"/>
</svg>
