<svg width="100%" viewBox="0 0 200 210" role="img" xmlns="http://www.w3.org/2000/svg">
<polygon points="100,20 185.6,82.2 152.9,182.8 47.1,182.8 14.4,82.2" fill="#c0c0c0" stroke="#000000" stroke-width="1.5" stroke-linejoin="miter"/>
<polygon points="14.4,82.2 100,20 185.6,82.2 179.6,84.1 100,26.3 20.4,84.1" fill="#ffffff"/>
<polygon points="185.6,82.2 152.9,182.8 47.1,182.8 14.4,82.2 20.4,84.1 50.8,177.7 149.2,177.7 179.6,84.1" fill="#808080"/>
<polygon points="100,26.3 179.6,84.1 149.2,177.7 50.8,177.7 20.4,84.1" fill="#c0c0c0"/>
<path fill-rule="evenodd" fill="#6a6aff" d="M73.5,67 L117.5,67 L117.5,78 L128.5,78 L128.5,100 L117.5,100 L117.5,111 L84.5,111 L84.5,155 L73.5,155 Z M84.5,78 L117.5,78 L117.5,100 L84.5,100 Z"/>
<path fill-rule="evenodd" fill="#000060" d="M72.5,66 L116.5,66 L116.5,77 L127.5,77 L127.5,99 L116.5,99 L116.5,110 L83.5,110 L83.5,154 L72.5,154 Z M83.5,77 L116.5,77 L116.5,99 L83.5,99 Z"/>
<path fill-rule="evenodd" fill="#b8b8ff" d="M84.5,79 L116.5,79 L116.5,82 L88.5,82 L88.5,98 L84.5,98 Z"/>
</svg>
