<svg width="100%" viewBox="0 0 200 200" xmlns="http://www.w3.org/2000/svg">
<polygon points="20,20 180,20 180,180 20,180" fill="#c0c0c0" stroke="#000000" stroke-width="1.5" stroke-linejoin="miter"/>
<polygon points="20,20 180,20 174,26 26,26 26,174 20,180" fill="#ffffff"/>
<polygon points="180,20 180,180 20,180 26,174 174,174 174,26" fill="#808080"/>
<polygon points="26,26 174,26 174,174 26,174" fill="#c0c0c0"/>
<path d="M49.329,166.0 L49.329,65.059 L119.412,100.0 L135.031,92.056 L34.089,41.586 L34.0,158.235 Z" fill="#4a4ac0"/>
<path d="M49.329,65.059 L65.059,72.824 L65.148,142.885 L166.089,92.414 L166.0,107.765 L49.329,166.0 Z" fill="#000060"/>
<path d="M65.059,127.176 L135.031,92.056 L34.089,41.586 L49.529,34.0 L166.089,92.414 L65.148,142.885 Z" fill="#26268f"/>
</svg>
